<svg width="84" height="74" viewBox="0 0 84 74" fill="none" xmlns="http://www.w3.org/2000/svg">
<g clip-path="url(#clip0_8_8)">
<path fill-rule="evenodd" clip-rule="evenodd" d="M35.751 64.6852C44.489 72.7398 56.6411 75.0834 68.7915 69.8966L79.2079 74.0003L77.5771 64.184C87.2683 55.6955 85.019 43.9004 77.2834 35.5993C76.678 38.809 75.564 41.8559 74.012 44.6827C71.6872 48.9179 68.3584 52.6814 64.2815 55.7793C60.3325 58.7819 55.7223 61.1386 50.6971 62.6605C46.0771 64.059 41.0322 64.7822 35.751 64.6852ZM21.6613 37.2033C20.398 37.2033 19.3726 36.1761 19.3726 34.9107C19.3726 33.6452 20.398 32.618 21.6613 32.618H42.0247C43.288 32.618 44.3118 33.6452 44.3118 34.9107C44.3118 36.1761 43.288 37.2033 42.0247 37.2033H21.6613ZM21.6613 25.4674C20.398 25.4674 19.3726 24.4402 19.3726 23.1747C19.3726 21.9076 20.398 20.8821 21.6613 20.8821H50.7578C52.0211 20.8821 53.0448 21.9076 53.0448 23.1747C53.0448 24.4402 52.0211 25.4674 50.7578 25.4674H21.6613ZM37.0996 0.0200447L37.134 0.0216882C47.0319 0.320798 55.911 3.84602 62.2668 9.30558C68.7587 14.8802 72.6519 22.4697 72.4091 30.7544L72.4075 30.7922C72.1515 39.0818 67.8055 46.433 60.9855 51.6164C54.3015 56.698 45.2158 59.6957 35.3195 59.4048C32.7848 59.3292 30.3205 59.0695 27.9712 58.6126C25.9286 58.2149 23.9516 57.6676 22.0649 56.961L4.62178 62.2973L9.84717 49.8481C6.86124 47.2202 4.44295 44.1617 2.75311 40.8074C0.868032 37.062 -0.117983 32.9484 0.0116259 28.6507C0.261001 20.3529 4.60866 12.9951 11.432 7.80839C18.1192 2.72682 27.2033 -0.270847 37.0996 0.0200447ZM37.0094 4.57242L36.9749 4.57078C28.1352 4.31111 20.0699 6.95215 14.1768 11.4306C8.42311 15.8038 4.76124 21.9323 4.55452 28.7756C4.44788 32.291 5.26163 35.6683 6.8153 38.7547C8.45756 42.0121 10.9201 44.9506 13.9996 47.396L15.3547 48.4708L12.5673 55.1088L22.2667 52.1407L23.005 52.4382C24.8343 53.1744 26.785 53.7365 28.8259 54.1326C30.9702 54.5516 33.1883 54.7867 35.4442 54.854C44.2839 55.1137 52.3492 52.4727 58.2423 47.9942C63.996 43.621 67.6579 37.4925 67.8646 30.6492V30.613C68.0598 23.7812 64.7769 17.4637 59.3087 12.7667C53.7011 7.95138 45.8244 4.83867 37.0094 4.57242Z" fill="white"/>
</g>
<defs>
<clipPath id="clip0_8_8">
<rect width="84" height="74" fill="white"/>
</clipPath>
</defs>
</svg>
