<svg width="83" height="83" viewBox="0 0 83 83" fill="none" xmlns="http://www.w3.org/2000/svg">
<g clip-path="url(#clip0_8_138)">
<path fill-rule="evenodd" clip-rule="evenodd" d="M17.4064 48.2346L42.2736 23.3674C42.4885 23.3947 42.715 23.3283 42.8791 23.1642C43.0432 23.0002 43.1135 22.7736 43.0822 22.5588L48.2346 17.4064C48.7775 16.8635 49.6642 16.8635 50.2072 17.4064L54.2814 21.4846C53.2111 23.2307 53.4338 25.5432 54.9455 27.0549C56.4572 28.5666 58.7697 28.7853 60.5158 27.7189L64.59 31.7932C65.133 32.3361 65.133 33.2228 64.59 33.7658L59.4377 38.9182C59.2228 38.8908 59.0002 38.9572 58.8322 39.1213C58.6682 39.2853 58.5978 39.5119 58.6291 39.7267L33.7658 64.59C33.2228 65.133 32.3361 65.133 31.7932 64.59L27.7424 60.5432C28.9064 58.7814 28.7111 56.3908 27.1642 54.84C25.6135 53.2893 23.2228 53.0978 21.4611 54.2619L17.4064 50.2072C16.8635 49.6642 16.8635 48.7775 17.4064 48.2346ZM56.9494 37.2385C57.2307 36.9572 57.6877 36.9572 57.9689 37.2385C58.2502 37.5197 58.2502 37.9767 57.9689 38.258C57.6877 38.5392 57.2307 38.5392 56.9494 38.258C56.6682 37.9767 56.6682 37.5197 56.9494 37.2385ZM55.0627 35.3517C55.3439 35.0705 55.801 35.0705 56.0822 35.3517C56.3635 35.633 56.3635 36.09 56.0822 36.3713C55.801 36.6525 55.3439 36.6525 55.0627 36.3713C54.7814 36.09 54.7814 35.633 55.0627 35.3517ZM53.176 33.465C53.4572 33.1838 53.9142 33.1838 54.1955 33.465C54.4767 33.7463 54.4767 34.2033 54.1955 34.4846C53.9142 34.7658 53.4572 34.7658 53.176 34.4846C52.8947 34.2033 52.8947 33.7463 53.176 33.465ZM51.2892 31.5783C51.5705 31.2971 52.0275 31.2971 52.3088 31.5783C52.59 31.8596 52.59 32.3166 52.3088 32.5978C52.0275 32.8791 51.5705 32.8791 51.2892 32.5978C51.008 32.3166 51.008 31.8596 51.2892 31.5783ZM49.4025 29.6916C49.6838 29.4103 50.1408 29.4103 50.4221 29.6916C50.7033 29.9728 50.7033 30.4299 50.4221 30.7111C50.1408 30.9924 49.6838 30.9924 49.4025 30.7111C49.1213 30.4299 49.1213 29.9728 49.4025 29.6916ZM47.5158 27.8049C47.7971 27.5236 48.2541 27.5236 48.5353 27.8049C48.8166 28.0861 48.8166 28.5432 48.5353 28.8244C48.2541 29.1057 47.7971 29.1057 47.5158 28.8244C47.2346 28.5432 47.2346 28.0861 47.5158 27.8049ZM45.6291 25.9182C45.9103 25.6369 46.3674 25.6369 46.6486 25.9182C46.9299 26.1994 46.9299 26.6564 46.6486 26.9377C46.3674 27.2189 45.9103 27.2189 45.6291 26.9377C45.3478 26.6564 45.3478 26.1994 45.6291 25.9182ZM43.7424 24.0314C44.0236 23.7502 44.4807 23.7502 44.7619 24.0314C45.0432 24.3127 45.0432 24.7697 44.7619 25.051C44.4807 25.3322 44.0236 25.3322 43.7424 25.051C43.4611 24.7697 43.4611 24.3127 43.7424 24.0314ZM26.9416 46.2619L42.3244 30.8791C42.9572 30.2463 43.9924 30.2463 44.6252 30.8791L51.6955 37.9494C52.3283 38.5822 52.3283 39.6174 51.6955 40.2502L36.3127 55.633C35.6799 56.2658 34.6447 56.2658 34.0119 55.633L26.9416 48.5627C26.3088 47.9299 26.3088 46.8947 26.9416 46.2619Z" fill="#FFFEFE"/>
</g>
<path d="M70.2576 12.0624C62.4792 4.2756 52.1556 0 41.16 0C30.1644 0 19.8408 4.3008 12.0624 12.0624C4.2756 19.8408 0 30.1644 0 41.16C0 52.1556 4.2756 62.4792 12.0624 70.2576C19.8408 78.0444 30.1644 82.32 41.16 82.32C52.1556 82.32 62.4792 78.0444 70.2576 70.2576C78.0444 62.4792 82.32 52.1556 82.32 41.16C82.32 30.1644 78.0192 19.8408 70.2576 12.0624ZM41.16 76.9944C21.3948 76.9944 5.3256 60.9252 5.3256 41.16C5.3256 21.3948 21.3948 5.3256 41.16 5.3256C60.9252 5.3256 76.9944 21.3948 76.9944 41.16C76.9944 60.9252 60.9252 76.9944 41.16 76.9944Z" fill="white"/>
<defs>
<clipPath id="clip0_8_138">
<rect width="48" height="48" fill="white" transform="translate(17 17)"/>
</clipPath>
</defs>
</svg>
