<svg width="24" height="24" viewBox="0 0 24 24" fill="none" xmlns="http://www.w3.org/2000/svg">
<path d="M11.4287 0.263124C11.5648 0.103826 11.7609 0.00861338 11.9702 0.000556913C12.1793 -0.00749953 12.3823 0.0721495 12.5301 0.220278C14.5336 2.27925 14.8885 5.43354 13.3927 7.88618C13.0505 8.40051 13.0193 9.0615 13.3116 9.6055C13.6701 10.1885 14.3165 10.5309 15 10.5003C16.049 10.5029 17.0222 9.95357 17.5618 9.054C17.7034 8.8308 17.9487 8.69512 18.213 8.69365C18.4783 8.69713 18.722 8.84087 18.8538 9.07121C20.298 11.5971 21 13.5378 21 15.0002C21 19.9707 16.9704 24 12 24C7.02942 24 3 19.9707 3 15.0002C3 10.2227 11.0845 0.668876 11.4287 0.263124Z" fill="#E40173"/>
</svg>
