<svg xmlns="http://www.w3.org/2000/svg" xmlns:xlink="http://www.w3.org/1999/xlink" version="1.1" width="1000" height="1000" viewBox="0 0 1000 1000" xml:space="preserve">
<desc>Created with Fabric.js 3.5.0</desc>
<defs>
</defs>
<rect x="0" y="0" width="100%" height="100%" fill="rgba(0,0,0,0)"/>
<g transform="matrix(37.8788 0 0 37.8788 500.0001 500.0001)" id="103197">
<g style="" vector-effect="non-scaling-stroke">
<g transform="matrix(1 0 0 1 0 0)">
<rect style="stroke: none; stroke-width: 1; stroke-dasharray: none; stroke-linecap: butt; stroke-dashoffset: 0; stroke-linejoin: miter; stroke-miterlimit: 4; is-custom-font: none; font-file-url: none; fill: currentColor; fill-rule: nonzero; opacity: 0;" x="-12" y="-12" rx="0" ry="0" width="24" height="24"/>
</g>
		<g transform="matrix(1 0 0 1 0.5035 -0.0025)">
<path style="stroke: none; stroke-width: 1; stroke-dasharray: none; stroke-linecap: butt; stroke-dashoffset: 0; stroke-linejoin: miter; stroke-miterlimit: 4; is-custom-font: none; font-file-url: none; fill: currentColor; fill-rule: nonzero; opacity: 1;" transform=" translate(-12.5034, -11.9975)" d="M 16.62 6.21 a 1 1 0 0 0 -1.41 0.17 l -7 9 l -3.43 -4.18 a 1 1 0 1 0 -1.56 1.25 l 4.17 5.18 a 1 1 0 0 0 0.78 0.37 a 1 1 0 0 0 0.83 -0.38 l 7.83 -10 a 1 1 0 0 0 -0.21 -1.41 z M 21.62 6.21 a 1 1 0 0 0 -1.41 0.17 l -7 9 l -0.61 -0.75 l -1.26 1.62 l 1.1 1.37 a 1 1 0 0 0 0.78 0.37 a 1 1 0 0 0 0.78 -0.38 l 7.83 -10 a 1 1 0 0 0 -0.21 -1.4 z" stroke-linecap="round"/>
</g>
		<g transform="matrix(1 0 0 1 -3.0018 -0.0773)">
<path style="stroke: none; stroke-width: 1; stroke-dasharray: none; stroke-linecap: butt; stroke-dashoffset: 0; stroke-linejoin: miter; stroke-miterlimit: 4; is-custom-font: none; font-file-url: none; fill: currentColor; fill-rule: nonzero; opacity: 1;" transform=" translate(-8.9981, -11.9226)" d="M 8.71 13.06 L 10 11.44 l -0.2 -0.24 a 1 1 0 0 0 -1.43 -0.2 a 1 1 0 0 0 -0.15 1.41 z" stroke-linecap="round"/>
</g>
</g>
</g>
</svg>