<svg id="SvgjsSvg1001" width="288" height="288" xmlns="http://www.w3.org/2000/svg" version="1.1" xmlns:xlink="http://www.w3.org/1999/xlink" xmlns:svgjs="http://svgjs.com/svgjs"><defs id="SvgjsDefs1002"></defs><g id="SvgjsG1008"><svg xmlns="http://www.w3.org/2000/svg" enable-background="new 0 0 1000 1000" viewBox="0 0 1000 1000" width="288" height="288"><g transform="matrix(.1 0 0 -.1 0 358)" fill="#51896a" class="color000 svgShape"><path d="M4610.9,1891.6c-641.8-54.6-1348-263.4-1888.4-561.9c-197-107.3-597-376.5-778.4-522.8C1370.4,342.6,816.4-383.1,527.7-1054.2c-189.2-437-310.2-860.3-382.4-1328.5c-39-253.6-42.9-360.9-44.9-1110.1c-2-952-3.9-944.2,161.9-1098.3c175.6-163.9-249.7-150.2,4732.9-150.2c5021.6,0,4565.1-15.6,4744.6,163.9c165.8,165.8,167.8,175.6,156.1,1180.3c-9.7,903.3-25.4,1096.4-130.7,1537.3c-119,499.4-380.4,1106.1-663.3,1537.3C8313.6,875.2,7067,1665.3,5658.5,1860.4C5381.5,1899.4,4878.1,1913.1,4610.9,1891.6z M5469.3,1540.4c1978.2-214.6,3599.4-1681.7,3993.5-3618.9c74.1-360.9,87.8-585.3,87.8-1410.5v-805.7l-48.8-46.8l-46.8-48.8H4995.2H535.5l-48.8,48.8l-50.7,50.7l7.8,862.3c9.8,955.9,21.5,1073,161.9,1582.2c427.2,1554.8,1646.5,2799.5,3176,3240.4c202.9,58.5,567.7,130.7,774.5,152.2C4710.4,1563.9,5291.7,1558,5469.3,1540.4z" fill="#51896a" class="color000 svgShape"></path><path d="M4889.8 1158.1l-60.5-50.7V691.8c0-390.2 2-417.5 41-466.3 31.2-41 56.6-50.7 124.9-50.7s93.6 9.8 124.9 50.7c39 48.8 41 76.1 41 464.3-2 431.1-3.9 450.7-91.7 495.5C5004.9 1220.5 4954.2 1212.7 4889.8 1158.1zM2868.7 617.7c-91.7-78-74.1-142.4 126.8-491.6C3095-45.6 3194.5-205.6 3216-229c39-44.9 128.8-58.5 199-33.2 35.1 13.7 87.8 107.3 87.8 158 0 44.9-378.5 704.3-425.3 739.4C3024.8 676.2 2925.3 668.4 2868.7 617.7zM6912.9 635.2c-44.9-33.2-425.3-694.5-425.3-739.4 0-50.7 52.7-144.4 87.8-158 70.2-25.4 160-11.7 199 33.2 21.4 23.4 121 183.4 220.4 355.1 200.9 349.2 218.5 413.6 126.8 491.6C7065.1 668.4 6965.6 676.2 6912.9 635.2zM3571-591.9c-105.3-89.7-99.5-105.4 425.3-1012.5 265.3-458.5 487.7-846.7 493.6-860.3 5.8-15.6-21.5-72.2-58.5-128.7-269.2-399.9-95.6-913 357-1055.4 156.1-48.8 257.5-48.8 413.6 0 507.2 160 653.6 801.8 267.3 1162.7-146.3 136.6-241.9 171.7-474.1 175.6l-195.1 3.9-489.7 842.8c-269.2 464.3-509.2 860.3-532.6 881.8C3717.4-533.3 3633.5-537.2 3571-591.9zM5104.4-2655.9c91.7-31.2 187.3-126.8 224.4-224.4 95.6-251.7-140.5-511.1-411.6-452.6-331.7 74.1-372.6 518.9-58.5 661.3C4950.3-2628.6 5012.7-2626.6 5104.4-2655.9zM1442.6-820.1c-105.3-42.9-136.6-177.5-60.5-261.4 46.8-54.6 626.2-394.1 702.3-413.6 56.6-13.7 160 33.2 177.5 80 19.5 54.6 13.7 156.1-11.7 189.2-33.2 41-657.4 399.9-719.9 413.6C1505.1-806.5 1464.1-810.4 1442.6-820.1zM8438.5-814.3c-72.2-27.3-675-386.3-696.5-413.6-25.4-33.2-33.2-134.6-13.7-187.3 19.5-46.8 121-93.6 179.5-78 76.1 19.5 651.6 357 702.3 411.6 23.4 27.3 42.9 74.1 42.9 105.3C8653.1-874.7 8526.3-779.1 8438.5-814.3zM873-2843.2c-33.2-11.7-81.9-111.2-81.9-161.9 0-23.4 25.4-68.3 56.6-99.5l56.6-56.6H1308c251.7 0 417.5 7.8 442.9 21.5 48.8 25.4 97.5 140.4 80 187.3-5.8 19.5-29.3 54.6-50.7 80-39 42.9-48.8 42.9-460.4 41C1087.6-2831.5 886.6-2837.3 873-2843.2zM8206.3-2876.3c-64.4-68.3-60.5-181.4 7.8-240 48.8-42.9 62.4-44.9 460.4-44.9h411.7l56.6 56.6c31.2 31.2 56.6 76.1 56.6 99.5 0 56.6-50.7 148.3-87.8 163.9-17.6 5.8-218.5 11.7-446.8 11.7C8251.2-2829.5 8249.3-2829.5 8206.3-2876.3z" fill="#51896a" class="color000 svgShape"></path></g></svg></g></svg>