<svg width="84" height="84" viewBox="0 0 84 84" fill="none" xmlns="http://www.w3.org/2000/svg">
<path d="M71.0976 12.9024C63.3192 5.1156 52.9956 0.839996 42 0.839996C31.0044 0.839996 20.6808 5.1408 12.9024 12.9024C5.1156 20.6808 0.839996 31.0044 0.839996 42C0.839996 52.9956 5.1156 63.3192 12.9024 71.0976C20.6808 78.8844 31.0044 83.16 42 83.16C52.9956 83.16 63.3192 78.8844 71.0976 71.0976C78.8844 63.3192 83.16 52.9956 83.16 42C83.16 31.0044 78.8592 20.6808 71.0976 12.9024ZM42 77.8344C22.2348 77.8344 6.1656 61.7652 6.1656 42C6.1656 22.2348 22.2348 6.1656 42 6.1656C61.7652 6.1656 77.8344 22.2348 77.8344 42C77.8344 61.7652 61.7652 77.8344 42 77.8344Z" fill="white"/>
<path d="M26.0568 26.5524C25.7712 26.4348 25.452 26.6112 25.3344 26.8968L20.3532 41.0508C20.2356 41.3364 20.412 41.6556 20.6976 41.7732C20.9832 41.8908 21.3024 41.7144 21.42 41.4288L26.4012 27.2748C26.502 27.0144 26.3256 26.67 26.0568 26.5524Z" fill="white"/>
<path d="M40.2108 41.6556C40.4964 41.7732 40.8156 41.5968 40.9332 41.3112L41.538 39.522C41.6556 39.2364 41.4792 38.9172 41.1936 38.7996C40.908 38.682 40.5888 38.8584 40.4712 39.144L39.8664 40.9332C39.7572 41.2188 39.8664 41.5464 40.2108 41.6556Z" fill="white"/>
<path d="M19.6728 31.4832L16.7664 30.3072C16.2708 30.1392 15.7584 30.366 15.5316 30.8028C15.3636 31.2984 15.5904 31.8108 16.0272 32.0376L18.9336 33.2136C19.4292 33.3816 19.9416 33.1548 20.1684 32.718C20.412 32.2056 20.1852 31.6512 19.6728 31.4832Z" fill="white"/>
<path d="M19.782 29.4672C20.0088 29.9208 20.5632 30.1308 21.0168 29.9628C21.4704 29.736 21.6804 29.1816 21.5124 28.728L20.2776 25.8216C20.0508 25.368 19.4964 25.158 19.0428 25.326C18.5892 25.5528 18.3792 26.1072 18.5472 26.5608L19.782 29.4672Z" fill="white"/>
<path d="M17.7324 34.734L14.826 35.9688C14.3724 36.1956 14.1624 36.75 14.3304 37.2036C14.5572 37.6572 15.1116 37.8672 15.5652 37.6992L18.4716 36.4644C18.9252 36.2376 19.1352 35.6832 18.9672 35.2296C18.7152 34.734 18.1692 34.566 17.7324 34.734Z" fill="white"/>
<path d="M43.1004 39.144C43.1004 42.0252 45.4356 44.352 48.3084 44.352C51.1812 44.352 53.5164 42.0168 53.5164 39.144C53.5164 36.2712 51.1812 33.936 48.3084 33.936C45.4356 33.936 43.1004 36.2712 43.1004 39.144Z" fill="white"/>
<path d="M69.7536 36.75C68.4012 36.4644 67.1328 37.3548 66.8976 38.7072C66.2928 41.8488 62.538 43.5204 59.4636 44.3016C57.0108 44.9652 54.5916 45.192 53.2056 45.3096C53.1468 45.3096 43.5204 45.3096 43.4112 45.3684C43.0668 45.4272 42.7476 45.5364 42.462 45.7128C42.462 45.7128 40.3284 46.9476 37.9344 47.8464C34.7928 49.0224 33.2976 48.7956 32.9532 48.5688C32.7852 48.4008 32.3988 47.502 33.012 45.0492C33.1296 44.4948 33.0708 43.9824 32.844 43.4868C33.1296 43.3188 33.2976 43.0836 33.2976 42.7644V41.0508H39.7824L40.5048 38.9172L26.6868 27.9636L22.0836 41.0508H28.1904V42.7224C28.1904 42.8904 28.2492 43.0668 28.3584 43.218C28.2408 43.386 28.1904 43.6212 28.1316 43.8228C27.1824 47.9136 27.7872 50.82 29.9796 52.4412C31.0464 53.2224 32.34 53.6172 33.894 53.6172C35.5068 53.6172 37.4136 53.214 39.6564 52.3824C40.95 51.8868 42.1092 51.3156 43.0584 50.8788C43.0584 50.8788 41.4456 58.9428 43.0584 60.8496C44.184 62.0844 46.368 62.2944 48.0984 62.2944C49.9464 62.2944 52.2984 62.1264 53.466 60.7908C55.1964 58.7748 53.466 50.2152 53.466 50.2152C55.1376 50.0976 57.8256 49.812 60.5808 49.0896C65.0496 47.9136 70.5852 45.2844 71.7108 39.6396C71.8788 38.3124 71.022 37.0188 69.7536 36.75ZM32.4324 42.7224C32.3736 42.7224 32.3736 42.7812 32.3148 42.7812C31.9704 42.4368 31.5924 42.1764 31.08 42.0588C30.2988 41.8908 29.5764 42.0588 29.0052 42.5124V41.0508H32.4072V42.7224H32.4324V42.7224Z" fill="white"/>
</svg>
