<svg width="123" height="108" viewBox="0 0 123 108" fill="none" xmlns="http://www.w3.org/2000/svg">
<g clip-path="url(#clip0_8_2)">
<path d="M81.75 54.65L81.22 56.29L81.14 56.43L81.07 56.52C80.4173 56.6896 79.7441 56.767 79.07 56.75C79.6898 54.9421 79.8982 53.0187 79.68 51.12C79.659 50.8617 79.704 50.6024 79.8107 50.3663C79.9174 50.1301 80.0823 49.925 80.29 49.77C81.4156 48.9141 82.2473 47.7294 82.67 46.38L83 43.77C82.9748 43.4142 82.9111 43.0621 82.81 42.72C82.81 42.6 82.73 42.51 82.7 42.43H82.44C82.0517 42.4071 81.6868 42.2373 81.4193 41.9549C81.1518 41.6726 81.0019 41.2989 81 40.91C81.05 35.99 80.53 32.91 79.63 30.78C78.11 28.21 75.76 26.91 72.96 25.51C72.47 25.3 71.96 25.07 71.46 24.81C62.33 34.35 54.77 22.08 43.94 40.56H43.57C43.43 40.88 43.28 41.2 43.14 41.56L43.06 41.72C42.8571 42.0714 42.5229 42.3278 42.131 42.4328C41.739 42.5379 41.3214 42.4829 40.97 42.28C40.7233 42.14 40.5833 42.08 40.55 42.1C40.49 42.1 40.42 42.26 40.33 42.47C40.1353 42.958 40.0237 43.4751 40 44C39.89 46.16 40.59 49 42 50.37C42.1443 50.507 42.2601 50.6712 42.3408 50.8531C42.4215 51.035 42.4654 51.2311 42.47 51.43C42.63 58.03 45.56 60.55 49.12 63.62L50.62 64.92C54.19 68.1 57.96 69.74 61.62 69.74C65.28 69.74 68.81 68.2 72.13 65H74.55H74.81C75.3 65 75.92 65 76.62 65L75.81 65.77L74.33 67.17C70.33 70.98 66.07 72.82 61.69 72.82C57.31 72.82 52.77 70.91 48.62 67.22L47.16 65.94C43.65 62.94 40.67 60.35 39.74 54.73L34.92 55.12C33.9961 55.2563 33.0556 55.0263 32.299 54.4789C31.5423 53.9315 31.0296 53.1101 30.87 52.19L29 37.41C28.9503 36.9418 28.9943 36.4685 29.1293 36.0175C29.2643 35.5665 29.4877 35.1468 29.7864 34.783C30.0851 34.4191 30.4532 34.1183 30.8693 33.898C31.2854 33.6778 31.7411 33.5425 32.21 33.5L33.78 33.37C33.686 33.1654 33.6317 32.9448 33.62 32.72C32.68 17.37 39.3 7.72 48.25 3.09C52.8245 0.824847 57.9047 -0.225983 63.0025 0.0384504C68.1002 0.302884 73.0444 1.87369 77.36 4.6C85.54 9.87 90.88 19.51 88.48 32.92C88.4412 33.1064 88.3808 33.2876 88.3 33.46L90.69 33.73C91.1953 33.782 91.6852 33.9344 92.1307 34.1785C92.5762 34.4225 92.9685 34.7532 93.2843 35.151C93.6002 35.5489 93.8333 36.0059 93.9699 36.4951C94.1066 36.9844 94.144 37.4961 94.08 38L92.23 52.06C92.0717 53.0725 91.5241 53.9831 90.704 54.5977C89.884 55.2123 88.8562 55.4823 87.84 55.35C87.5677 56.4119 87.2338 57.457 86.84 58.48C86.5003 59.3489 85.9903 60.1411 85.34 60.81C83.34 62.87 76.88 62.87 74.59 62.87H68.59C67.9005 63.5479 67.078 64.0756 66.1744 64.4198C65.2709 64.764 64.3058 64.9173 63.34 64.87C60.02 64.87 57.34 63.11 57.34 60.94C57.34 58.77 60.02 57.01 63.34 57.01C64.2731 56.9908 65.2007 57.1568 66.0693 57.4983C66.9378 57.8399 67.73 58.3503 68.4 59H74.55C76.35 59 81.69 59 82.61 58.07C82.8878 57.7826 83.1054 57.4426 83.25 57.07L83.93 54.95L81.75 54.7V54.65ZM38 27.17C41.4 11.31 59.89 1.42 77.44 11.49C79.0193 12.3961 80.4578 13.5281 81.71 14.85C80.0152 12.0155 77.6794 9.61803 74.89 7.85C71.2671 5.54498 67.1085 4.21851 62.82 4C58.5294 3.73406 54.2447 4.60687 50.4 6.53C43.82 9.89 38.72 16.65 38 27.17ZM44.78 73L54 97.19L58.64 84L56.37 81.52C54.66 79.02 55.25 76.19 58.37 75.68C59.51 75.5708 60.6565 75.5474 61.8 75.61C63.0585 75.5285 64.322 75.5787 65.57 75.76C68.51 76.4 68.82 79.25 67.35 81.52L65.12 84L69.75 97.2L78.1 73C84.1 78.42 105.31 79.51 111.94 83.2C121.12 88.34 120.87 98.2 122.88 107.4H0C2 98.29 1.79 88.26 10.94 83.2C19.09 78.65 38.11 79 44.78 73Z" fill="#176138"/>
</g>
<defs>
<clipPath id="clip0_8_2">
<rect width="122.88" height="107.38" fill="white"/>
</clipPath>
</defs>
</svg>
