<svg width="86" height="86" viewBox="0 0 86 86" fill="none" xmlns="http://www.w3.org/2000/svg">
<path d="M38.9942 15.0796L21.1771 24.7719C18.6026 26.1724 17 28.8686 17 31.7994L17 54.2006C17 57.1314 18.6026 59.8276 21.1771 61.2281L38.9942 70.9204C41.3779 72.2171 44.2563 72.2171 46.64 70.9204L64.4571 61.2281C67.0316 59.8276 68.6342 57.1314 68.6342 54.2006L68.6342 31.7994C68.6342 28.8686 67.0316 26.1724 64.4571 24.7719L46.64 15.0796C44.2563 13.7829 41.3779 13.7829 38.9942 15.0796Z" fill="url(#paint0_linear_8_100)"/>
<g opacity="0.5">
<mask id="mask0_8_100" style="mask-type:alpha" maskUnits="userSpaceOnUse" x="21" y="19" width="43" height="48">
<path d="M39.1005 20.592L26.0213 27.7006C23.4453 29.1006 21.8415 31.7976 21.8415 34.7295L21.8415 51.2468C21.8415 54.1787 23.4453 56.8757 26.0213 58.2758L39.1005 65.3844C41.4828 66.6791 44.3587 66.6791 46.741 65.3844L59.8202 58.2758C62.3962 56.8757 64 54.1787 64 51.2469L64 34.7295C64 31.7976 62.3962 29.1006 59.8202 27.7006L46.741 20.592C44.3587 19.2972 41.4828 19.2972 39.1005 20.592Z" fill="#A6D3DE"/>
</mask>
<g mask="url(#mask0_8_100)">
<path d="M39.1005 20.592L26.0213 27.7006C23.4453 29.1006 21.8415 31.7976 21.8415 34.7295L21.8415 51.2468C21.8415 54.1787 23.4453 56.8757 26.0213 58.2758L39.1005 65.3844C41.4828 66.6791 44.3587 66.6791 46.741 65.3844L59.8202 58.2758C62.3962 56.8757 64 54.1787 64 51.2469L64 34.7295C64 31.7976 62.3962 29.1006 59.8202 27.7006L46.741 20.592C44.3587 19.2972 41.4828 19.2972 39.1005 20.592Z" fill="url(#paint1_radial_8_100)"/>
<path opacity="0.5" d="M39.3969 68.4274L38.5595 17.5465H47.282L46.4446 68.4274H39.3969Z" fill="url(#paint2_linear_8_100)"/>
<path opacity="0.5" d="M39.2848 67.9761L13.1191 24.3306L20.673 19.9694L45.3883 64.4523L39.2848 67.9761Z" fill="url(#paint3_linear_8_100)"/>
<path opacity="0.5" d="M38.5582 64.4523L63.2735 19.9694L70.8274 24.3306L44.6617 67.9761L38.5582 64.4523Z" fill="url(#paint4_linear_8_100)"/>
<g filter="url(#filter0_i_8_100)">
<path d="M39.1005 20.592L26.0213 27.7006C23.4453 29.1006 21.8415 31.7976 21.8415 34.7295L21.8415 51.2468C21.8415 54.1787 23.4453 56.8757 26.0213 58.2758L39.1005 65.3844C41.4828 66.6791 44.3587 66.6791 46.741 65.3844L59.8202 58.2758C62.3962 56.8757 64 54.1787 64 51.2469L64 34.7295C64 31.7976 62.3962 29.1006 59.8202 27.7006L46.741 20.592C44.3587 19.2972 41.4828 19.2972 39.1005 20.592Z" fill="#26C7C1" fill-opacity="0.03"/>
</g>
</g>
</g>
<path d="M36.1096 31.145C36.3335 30.0633 37.3918 29.3679 38.4735 29.5918L52.8646 32.5702C53.7194 32.7471 54.3607 33.4579 54.449 34.3263L55.4873 44.5376C55.508 44.7406 55.4974 44.9455 55.4561 45.1453L53.3947 55.1058C53.1708 56.1875 52.1125 56.8829 51.0308 56.659L33.6175 53.0552C32.5358 52.8313 31.8405 51.773 32.0643 50.6913L36.1096 31.145Z" fill="#EBEBEB"/>
<path d="M32.5947 30.4175C32.8186 29.3358 33.8769 28.6405 34.9586 28.8643L51.1996 32.2255C52.2813 32.4494 52.9766 33.5077 52.7528 34.5894L51.7976 39.2045C51.5738 40.2862 52.2692 41.3445 53.3508 41.5683L54.1212 41.7278C55.2029 41.9516 55.8983 43.01 55.6744 44.0916L53.3949 55.1059C53.1711 56.1875 52.1127 56.8829 51.0311 56.659L30.1026 52.3277C29.021 52.1038 28.3256 51.0455 28.5494 49.9639L28.8063 48.7228L32.5947 30.4175Z" fill="white"/>
<path d="M46.8038 42.8923L43.5786 42.2248C43.2005 42.1465 42.9629 41.7503 43.0478 41.3397C43.1328 40.9292 43.5082 40.6598 43.8863 40.7381L47.1115 41.4056C47.4896 41.4838 47.7272 41.8801 47.6423 42.2906C47.5573 42.7011 47.1819 42.9705 46.8038 42.8923Z" fill="#D2CCCD"/>
<path d="M48.3801 47.0944L35.9598 44.5239C35.5817 44.4457 35.3441 44.0494 35.4291 43.6389C35.514 43.2284 35.8894 42.959 36.2675 43.0372L48.6878 45.6078C49.0658 45.686 49.3035 46.0823 49.2185 46.4928C49.1336 46.9033 48.7582 47.1727 48.3801 47.0944Z" fill="#D2CCCD"/>
<path d="M47.5642 51.0369L35.1439 48.4664C34.7658 48.3881 34.5282 47.9919 34.6131 47.5813C34.6981 47.1708 35.0735 46.9014 35.4516 46.9797L47.8718 49.5502C48.2499 49.6285 48.4876 50.0247 48.4026 50.4352C48.3176 50.8458 47.9422 51.1151 47.5642 51.0369Z" fill="#D2CCCD"/>
<path d="M47.3588 40.2107L44.1336 39.5432C43.7555 39.465 43.5179 39.0687 43.6028 38.6582C43.6878 38.2477 44.0632 37.9783 44.4413 38.0565L47.6665 38.724C48.0446 38.8023 48.2822 39.1985 48.1973 39.609C48.1123 40.0196 47.7369 40.2889 47.3588 40.2107Z" fill="#D2CCCD"/>
<path d="M47.8534 37.821L44.6281 37.1535C44.2501 37.0753 44.0124 36.679 44.0974 36.2685C44.1823 35.858 44.5577 35.5886 44.9358 35.6669L48.1611 36.3343C48.5391 36.4126 48.7768 36.8088 48.6918 37.2194C48.6069 37.6299 48.2315 37.8993 47.8534 37.821Z" fill="#D2CCCD"/>
<rect x="36.7483" y="33.433" width="6.53471" height="7.14734" rx="1" transform="rotate(11.6928 36.7483 33.433)" fill="#D2CCCD"/>
<defs>
<filter id="filter0_i_8_100" x="21.8415" y="19.6209" width="42.1585" height="46.7345" filterUnits="userSpaceOnUse" color-interpolation-filters="sRGB">
<feFlood flood-opacity="0" result="BackgroundImageFix"/>
<feBlend mode="normal" in="SourceGraphic" in2="BackgroundImageFix" result="shape"/>
<feColorMatrix in="SourceAlpha" type="matrix" values="0 0 0 0 0 0 0 0 0 0 0 0 0 0 0 0 0 0 127 0" result="hardAlpha"/>
<feOffset/>
<feGaussianBlur stdDeviation="6.72414"/>
<feComposite in2="hardAlpha" operator="arithmetic" k2="-1" k3="1"/>
<feColorMatrix type="matrix" values="0 0 0 0 0.508333 0 0 0 0 0.437506 0 0 0 0 0.415139 0 0 0 1 0"/>
<feBlend mode="normal" in2="shape" result="effect1_innerShadow_8_100"/>
</filter>
<linearGradient id="paint0_linear_8_100" x1="46.5053" y1="4.81819" x2="70.3078" y2="68.9397" gradientUnits="userSpaceOnUse">
<stop stop-color="#C5FFAA"/>
<stop offset="1" stop-color="#00BAC6"/>
</linearGradient>
<radialGradient id="paint1_radial_8_100" cx="0" cy="0" r="1" gradientUnits="userSpaceOnUse" gradientTransform="translate(42.9207 42.9882) rotate(90) scale(24.4725 21.0792)">
<stop stop-color="#A9F5AE"/>
<stop offset="1" stop-color="#21C6C1"/>
</radialGradient>
<linearGradient id="paint2_linear_8_100" x1="42.9207" y1="17.5465" x2="42.9207" y2="68.4274" gradientUnits="userSpaceOnUse">
<stop stop-color="white"/>
<stop offset="1" stop-color="white" stop-opacity="0"/>
</linearGradient>
<linearGradient id="paint3_linear_8_100" x1="16.8961" y1="22.15" x2="42.3365" y2="66.2142" gradientUnits="userSpaceOnUse">
<stop stop-color="white"/>
<stop offset="1" stop-color="white" stop-opacity="0"/>
</linearGradient>
<linearGradient id="paint4_linear_8_100" x1="67.0504" y1="22.15" x2="41.61" y2="66.2142" gradientUnits="userSpaceOnUse">
<stop stop-color="white"/>
<stop offset="1" stop-color="white" stop-opacity="0"/>
</linearGradient>
</defs>
</svg>
