<svg width="58" height="58" viewBox="0 0 58 58" fill="none" xmlns="http://www.w3.org/2000/svg">
<path d="M9.66671 9.66663C8.38483 9.66663 7.15545 10.1759 6.24902 11.0823C5.3426 11.9887 4.83337 13.2181 4.83337 14.5V24.1666C6.11525 24.1666 7.34463 24.6759 8.25106 25.5823C9.15748 26.4887 9.66671 27.7181 9.66671 29C9.66671 30.2818 9.15748 31.5112 8.25106 32.4176C7.34463 33.3241 6.11525 33.8333 4.83337 33.8333V43.5C4.83337 44.7818 5.3426 46.0112 6.24902 46.9176C7.15545 47.8241 8.38483 48.3333 9.66671 48.3333H48.3334C49.6153 48.3333 50.8446 47.8241 51.7511 46.9176C52.6575 46.0112 53.1667 44.7818 53.1667 43.5V33.8333C51.8848 33.8333 50.6555 33.3241 49.749 32.4176C48.8426 31.5112 48.3334 30.2818 48.3334 29C48.3334 27.7181 48.8426 26.4887 49.749 25.5823C50.6555 24.6759 51.8848 24.1666 53.1667 24.1666V14.5C53.1667 13.2181 52.6575 11.9887 51.7511 11.0823C50.8446 10.1759 49.6153 9.66663 48.3334 9.66663H9.66671ZM9.66671 14.5H48.3334V20.6383C45.3367 22.3541 43.5 25.5441 43.5 29C43.5 32.4558 45.3367 35.6458 48.3334 37.3616V43.5H9.66671V37.3616C12.6634 35.6458 14.5 32.4558 14.5 29C14.5 25.5441 12.6634 22.3541 9.66671 20.6383V14.5Z" fill="#6E7191"/>
</svg>
