<svg width="22" height="20" viewBox="0 0 22 20" fill="none" xmlns="http://www.w3.org/2000/svg">
<path d="M11 10.9166V18.25M4.58333 7.24997C4.58333 6.76374 4.77649 6.29742 5.1203 5.95361C5.46412 5.60979 5.93044 5.41664 6.41667 5.41664H15.5833C16.0696 5.41664 16.5359 5.60979 16.8797 5.95361C17.2235 6.29742 17.4167 6.76374 17.4167 7.24997V11.8333C17.4167 13.5351 16.7406 15.1672 15.5373 16.3706C14.3339 17.5739 12.7018 18.25 11 18.25V18.25C9.29819 18.25 7.66609 17.5739 6.46273 16.3706C5.25937 15.1672 4.58333 13.5351 4.58333 11.8333V7.24997ZM7.33333 4.49997V4.11039C7.33333 3.21114 7.68533 2.31372 8.54883 2.05889C9.94675 1.64639 12.0533 1.64639 13.4512 2.05889C14.3147 2.31372 14.6667 3.21114 14.6667 4.11039V4.49997H7.33333ZM16.9583 5.87497L20.1667 2.66664L16.9583 5.87497ZM5.04167 5.87497L1.83333 2.66664L5.04167 5.87497ZM5.5 15.5L1.83333 18.25L5.5 15.5ZM4.58333 9.99997H1.375H4.58333ZM20.625 9.99997H17.4167H20.625ZM16.5 15.5L20.1667 18.25L16.5 15.5Z" stroke="#6E7191" stroke-width="2" stroke-linecap="round" stroke-linejoin="round"/>
</svg>
