<svg width="78" height="89" viewBox="0 0 78 89" fill="none" xmlns="http://www.w3.org/2000/svg">
<path d="M70 45.2883C70 50.1789 68.8876 54.8073 66.904 58.9304C61.8789 69.3756 51.2628 74 38.9794 74C21.8471 74 11 62.5684 11 45.2883C11 34.4884 13.384 24.9663 21.6354 19.3436C26.5864 15.97 32.5549 14 38.9794 14C56.1117 14 70 28.0083 70 45.2883Z" fill="#063EF9"/>
<path d="M49.6665 64.2536C32.5183 64.2536 18.6169 50.4567 18.6169 33.4371C18.6169 28.6196 19.7316 24.0611 21.7175 20C13.4428 25.5355 8 34.9218 8 45.5708C8 58.1725 15.6213 69.0076 26.5389 73.7835L51.0531 74C58.0296 71.0948 63.711 65.734 67 59.0068C62.0496 62.3193 56.0859 64.2536 49.6665 64.2536Z" fill="#0532C7"/>
<path d="M32.8881 65.8249H36.2092L32.6633 23.3539L24.7966 23.6586L32.8881 65.8249Z" fill="#FA870A"/>
<path d="M34.761 70.5243H38.0001V32.5259L29.7794 39.0773L34.761 70.5243Z" fill="#E7A52E"/>
<path d="M42.89 70.5235H39.569L43.1148 23.3541L50.9815 23.6588L42.89 70.5235Z" fill="#E7A52E"/>
<path d="M41.2391 70.5243H38V32.5259L45.8918 38.9364L41.2391 70.5243Z" fill="#ECC32E"/>
<path d="M37.8893 14.1819L41.935 22.3481L50.9817 23.6577L44.4355 30.0142L44.4727 30.2304L40.3898 32.7659L32.6915 29.6524L29.7979 25.128L30.1322 22.8854L33.8437 22.3481L37.8893 14.1819Z" fill="#F9EF63"/>
<path d="M41.6066 30.5284C36.0487 30.5284 31.3884 27.2717 30.1318 22.8857L24.7966 23.6581L31.3427 30.0146L29.7974 38.9902L37.889 34.7526L45.9805 38.9903L44.4723 30.2309C43.5548 30.4249 42.5951 30.5284 41.6066 30.5284Z" fill="#F1D333"/>
<path d="M48.7613 72.1163L47.0869 64.1746H35.5662V72.1163H48.7613Z" fill="#736E6E"/>
<path d="M38.0003 75.1102C41.8761 75.1102 45.5692 74.3326 48.9322 72.9266L48.7235 71.9368H42.2722C38.1614 71.9368 35.0782 68.1901 35.8845 64.1746H28.324L26.6064 72.728C30.0924 74.2587 33.9463 75.1102 38.0003 75.1102Z" fill="#595454"/>
<path d="M43.8195 72.79H39.6982L38.9116 72.5118L37.8889 72.79H36.6845L34.553 72.4571L32.6571 72.79H31.7201V67.5677H35.4015L37.3594 68.1453L39.4289 67.5677H40.6333L41.3473 67.8414L42.4426 67.5677H43.8195V72.79Z" fill="#F1D333"/>
<path d="M32.6573 72.79H36.6847L39.4291 67.5677H35.4018L32.6573 72.79Z" fill="#F9EF63"/>
<path d="M37.8892 72.7902H39.6985L42.4429 67.5679H40.6336L37.8892 72.7902Z" fill="#F9EF63"/>
<path d="M59.3122 26.2756C60.0054 28.6864 61.8972 30.5709 64.3171 31.2614C61.897 31.952 60.0053 33.8365 59.3122 36.2472C58.619 33.8364 56.7273 31.9519 54.3074 31.2614C56.7274 30.5709 58.6191 28.6864 59.3122 26.2756Z" fill="#F9EF63"/>
<path d="M53.0141 34.4912C53.3629 35.7043 54.3148 36.6527 55.5326 37.0001C54.3148 37.3476 53.3629 38.2959 53.0141 39.509C52.6653 38.2959 51.7134 37.3476 50.4956 37.0001C51.7134 36.6527 52.6652 35.7043 53.0141 34.4912Z" fill="#F9EF63"/>
<path d="M56.7894 18.7675C57.2355 20.3189 58.4529 21.5317 60.0103 21.9761C58.4529 22.4204 57.2355 23.6332 56.7894 25.1846C56.3434 23.6332 55.126 22.4204 53.5686 21.9761C55.126 21.5317 56.3434 20.3189 56.7894 18.7675Z" fill="#F9EF63"/>
<path d="M23.8713 53.1799C24.5143 55.4163 26.2691 57.1643 28.5139 57.8049C26.269 58.4454 24.5143 60.1936 23.8713 62.4298C23.2283 60.1935 21.4734 58.4454 19.2286 57.8049C21.4734 57.1643 23.2283 55.4162 23.8713 53.1799Z" fill="#F9EF63"/>
<path d="M15.4352 50.308C15.7874 51.5329 16.7487 52.4905 17.9783 52.8414C16.7487 53.1923 15.7874 54.1499 15.4352 55.3748C15.083 54.1499 14.1217 53.1923 12.8921 52.8414C14.1217 52.4906 15.083 51.533 15.4352 50.308Z" fill="#F9EF63"/>
<path d="M21.148 45.2386C21.5618 46.6778 22.691 47.8028 24.1357 48.215C22.691 48.6271 21.5618 49.7521 21.148 51.1913C20.7342 49.7521 19.605 48.6271 18.1603 48.215C19.6048 47.8028 20.7341 46.6778 21.148 45.2386Z" fill="#F9EF63"/>
<path d="M9.72095 52.5023L66.2791 39.8553V54.4992L9.72095 67.1462V52.5023Z" fill="url(#paint0_linear)"/>
<path d="M26.284 56.8182L22.9828 57.5199L23.4579 59.7552L27.3323 58.9316L27.6259 60.3129L22.0321 61.5019L20.2584 53.1571L25.8407 51.9705L26.1367 53.3632L22.2738 54.1843L22.6965 56.1731L25.9978 55.4714L26.284 56.8182ZM31.2783 57.3741L31.8356 50.6962L33.7499 50.2893L32.6179 59.2518L30.824 59.6331L26.1559 51.9035L28.0644 51.4978L31.2783 57.3741ZM40.5665 53.7824L37.2653 54.4841L37.7404 56.7193L41.6148 55.8958L41.9084 57.2771L36.3146 58.4661L34.5408 50.1212L40.1232 48.9347L40.4192 50.3274L36.5563 51.1485L36.979 53.1372L40.2802 52.4355L40.5665 53.7824ZM49.703 55.6203L47.9836 55.9857L43.4694 51.2066L44.6365 56.6972L42.9171 57.0626L41.1433 48.7178L42.8627 48.3524L47.3851 53.1418L46.2156 47.6397L47.9292 47.2754L49.703 55.6203ZM55.8365 47.0503L53.2803 47.5937L54.758 54.5458L53.0386 54.9112L51.5609 47.9591L49.0391 48.4952L48.7431 47.1025L55.5404 45.6576L55.8365 47.0503Z" fill="white"/>
<defs>
<linearGradient id="paint0_linear" x1="47.8648" y1="65.8149" x2="51.2189" y2="31.2724" gradientUnits="userSpaceOnUse">
<stop stop-color="#FF14BC"/>
<stop offset="1" stop-color="#E5051F"/>
</linearGradient>
</defs>
</svg>
