<svg width="24" height="24" viewBox="0 0 24 24" fill="none" xmlns="http://www.w3.org/2000/svg">
<path d="M5.94226 6C5.94226 4.34315 7.28541 3 8.94226 3H11.4316C15.3928 3 18.8883 5.58997 20.0417 9.37958L20.1332 9.68034C20.3917 10.5298 20.5231 11.4128 20.5231 12.3008V16.6154C20.5231 18.2722 19.18 19.6154 17.5231 19.6154H8.94226C7.28541 19.6154 5.94226 18.2722 5.94226 16.6154V6Z" fill="#9BB2FD"/>
<path d="M2.52307 6C2.52307 4.34315 3.86622 3 5.52307 3H12.7931C15.0022 3 16.7931 4.79086 16.7931 7V8.02469C16.7931 8.58651 17.2486 9.04196 17.8104 9.04196C19.3086 9.04196 20.5231 10.2565 20.5231 11.7547V16.6154C20.5231 18.2722 19.1799 19.6154 17.5231 19.6154H4.78882C3.53749 19.6154 2.52308 18.601 2.52307 17.3497V6Z" fill="#E5EBFE"/>
<path d="M13.7379 10.4542H11.4914C11.228 10.4542 11.0145 10.2164 11.0145 9.92313C11.0145 9.62986 11.228 9.3921 11.4914 9.3921H13.7379C14.0012 9.3921 14.2147 9.62986 14.2147 9.92313C14.2147 10.2164 14.0012 10.4542 13.7379 10.4542Z" fill="#FCFCFC"/>
<path d="M14.2147 13.1094L5.07694 13.1093C4.8136 13.1093 4.6001 12.8716 4.6001 12.5783C4.6001 12.285 4.8136 12.0473 5.07694 12.0473L14.2147 12.0473C14.478 12.0473 14.6915 12.2851 14.6915 12.5783C14.6915 12.8716 14.478 13.1094 14.2147 13.1094Z" fill="#FCFCFC"/>
<path d="M14.2147 15.9258L5.07694 15.9258C4.8136 15.9258 4.6001 15.688 4.6001 15.3947C4.6001 15.1015 4.8136 14.8637 5.07694 14.8637L14.2147 14.8637C14.478 14.8637 14.6915 15.1015 14.6915 15.3948C14.6915 15.688 14.478 15.9258 14.2147 15.9258Z" fill="#FCFCFC"/>
<path d="M13.7379 8.53849H11.4914C11.228 8.53849 11.0145 8.30073 11.0145 8.00746C11.0145 7.71419 11.228 7.47643 11.4914 7.47643H13.7379C14.0012 7.47643 14.2147 7.71419 14.2147 8.00746C14.2147 8.30073 14.0012 8.53849 13.7379 8.53849Z" fill="#FCFCFC"/>
<path d="M13.7379 6.83135H11.4914C11.228 6.83135 11.0145 6.59359 11.0145 6.30032C11.0145 6.00705 11.228 5.76929 11.4914 5.76929L13.7379 5.76929C14.0012 5.76929 14.2147 6.00705 14.2147 6.30032C14.2147 6.59359 14.0012 6.83135 13.7379 6.83135Z" fill="#FCFCFC"/>
<rect x="4.59998" y="5.40002" width="6" height="5" rx="2" fill="#FCFCFC"/>
<path fill-rule="evenodd" clip-rule="evenodd" d="M17.6569 21.7066C19.2701 20.3135 22 17.64 22 15.5C22 12.4624 19.5376 10 16.5 10C13.4624 10 11 12.4624 11 15.5C11 17.64 13.7299 20.3135 15.3431 21.7066C16.0143 22.2862 16.9857 22.2862 17.6569 21.7066ZM16.5001 17.15C17.4113 17.15 18.1501 16.4112 18.1501 15.5C18.1501 14.5887 17.4113 13.85 16.5001 13.85C15.5888 13.85 14.8501 14.5887 14.8501 15.5C14.8501 16.4112 15.5888 17.15 16.5001 17.15Z" fill="url(#paint0_linear)"/>
<defs>
<linearGradient id="paint0_linear" x1="11" y1="13.7031" x2="22.269" y2="14.61" gradientUnits="userSpaceOnUse">
<stop stop-color="#FF4C4C"/>
<stop offset="1" stop-color="#FE6794"/>
</linearGradient>
</defs>
</svg>
