<svg width="24" height="24" viewBox="0 0 24 24" fill="none" xmlns="http://www.w3.org/2000/svg">
<path d="M6.41919 6C6.41919 4.34315 7.76234 3 9.41919 3H11.9085C15.8697 3 19.3652 5.58997 20.5186 9.37958L20.6101 9.68034C20.8686 10.5298 21 11.4128 21 12.3008V16.6154C21 18.2722 19.6569 19.6154 18 19.6154H9.41919C7.76234 19.6154 6.41919 18.2722 6.41919 16.6154V6Z" fill="#9BB2FD"/>
<path d="M3 6C3 4.34315 4.34315 3 6 3H13.27C15.4792 3 17.27 4.79086 17.27 7V8.02469C17.27 8.58651 17.7255 9.04196 18.2873 9.04196C19.7855 9.04196 21 10.2565 21 11.7547V16.6154C21 18.2722 19.6569 19.6154 18 19.6154H5.26575C4.01442 19.6154 3.00001 18.601 3 17.3497V6Z" fill="#E5EBFE"/>
<path d="M14.2148 10.4542H11.9683C11.705 10.4542 11.4915 10.2164 11.4915 9.92313C11.4915 9.62986 11.705 9.3921 11.9683 9.3921H14.2148C14.4781 9.3921 14.6916 9.62986 14.6916 9.92313C14.6916 10.2164 14.4781 10.4542 14.2148 10.4542Z" fill="#FCFCFC"/>
<path d="M14.6916 13.1094L5.55387 13.1093C5.29053 13.1093 5.07703 12.8716 5.07703 12.5783C5.07703 12.285 5.29053 12.0473 5.55387 12.0473L14.6916 12.0473C14.955 12.0473 15.1685 12.2851 15.1685 12.5783C15.1685 12.8716 14.955 13.1094 14.6916 13.1094Z" fill="#FCFCFC"/>
<path d="M14.6916 15.9258L5.55387 15.9258C5.29053 15.9258 5.07703 15.688 5.07703 15.3947C5.07703 15.1015 5.29053 14.8637 5.55387 14.8637L14.6916 14.8637C14.955 14.8637 15.1685 15.1015 15.1685 15.3948C15.1685 15.688 14.955 15.9258 14.6916 15.9258Z" fill="#FCFCFC"/>
<path d="M14.2148 8.53849H11.9683C11.705 8.53849 11.4915 8.30073 11.4915 8.00746C11.4915 7.71419 11.705 7.47643 11.9683 7.47643H14.2148C14.4781 7.47643 14.6916 7.71419 14.6916 8.00746C14.6916 8.30073 14.4781 8.53849 14.2148 8.53849Z" fill="#FCFCFC"/>
<path d="M14.2148 6.83135H11.9683C11.705 6.83135 11.4915 6.59359 11.4915 6.30032C11.4915 6.00705 11.705 5.76929 11.9683 5.76929L14.2148 5.76929C14.4781 5.76929 14.6916 6.00705 14.6916 6.30032C14.6916 6.59359 14.4781 6.83135 14.2148 6.83135Z" fill="#FCFCFC"/>
<rect x="5.0769" y="5.40002" width="6" height="5" rx="2" fill="#FCFCFC"/>
<path d="M21.8181 15.4999C21.8181 18.4371 19.4371 20.8181 16.4999 20.8181C13.5628 20.8181 11.1818 18.4371 11.1818 15.4999C11.1818 12.5628 13.5628 10.1818 16.4999 10.1818C19.4371 10.1818 21.8181 12.5628 21.8181 15.4999Z" fill="url(#paint0_linear)"/>
<path fill-rule="evenodd" clip-rule="evenodd" d="M22.4091 15.5C22.4091 18.7635 19.7635 21.4091 16.5 21.4091C13.2365 21.4091 10.5909 18.7635 10.5909 15.5C10.5909 12.2365 13.2365 9.59094 16.5 9.59094C19.7635 9.59094 22.4091 12.2365 22.4091 15.5ZM16.5 20.8182C19.4372 20.8182 21.8182 18.4372 21.8182 15.5C21.8182 12.5629 19.4372 10.1819 16.5 10.1819C13.5629 10.1819 11.1819 12.5629 11.1819 15.5C11.1819 18.4372 13.5629 20.8182 16.5 20.8182Z" fill="url(#paint1_linear)"/>
<path fill-rule="evenodd" clip-rule="evenodd" d="M21.4934 13.6658C20.787 11.7436 19.0024 10.3422 16.8726 10.1948L16.8832 10.2395C16.9103 10.3536 16.9667 10.4587 17.0469 10.5443L17.1205 10.6229C17.2486 10.7598 17.289 10.9571 17.2249 11.1333L17.2067 11.1832C17.1227 11.4139 17.2417 11.6689 17.4723 11.7529C17.6644 11.8228 17.784 12.0148 17.7622 12.2181L17.7249 12.5638C17.6973 12.8209 17.783 13.0773 17.9598 13.2661L18.0472 13.3594C18.3233 13.6541 18.732 13.7853 19.128 13.7061L19.6445 13.6028C19.8845 13.5549 20.1309 13.5489 20.3729 13.5853L21.0423 13.6858C21.193 13.7084 21.3461 13.7015 21.4934 13.6658ZM13.5466 19.9236C12.1207 18.9697 11.1818 17.3446 11.1818 15.5002C11.1818 13.5079 12.2772 11.7715 13.8987 10.8605C14.0123 10.919 14.1198 10.9937 14.2177 11.0848C14.332 11.1912 14.428 11.3157 14.5019 11.4533L14.676 11.7773L14.9459 12.1541C15.1419 12.4279 15.2474 12.7561 15.2474 13.0928V13.2229C15.2474 13.3221 15.2645 13.4205 15.2979 13.5139C15.4351 13.8969 15.2861 14.3238 14.9404 14.5383L14.7682 14.6451C14.7069 14.6832 14.6494 14.7271 14.5966 14.7763L14.1046 15.2342L13.7935 15.5238C13.4576 15.8364 13.322 16.309 13.441 16.7522C13.5013 16.9766 13.6234 17.1795 13.7935 17.3378L13.8424 17.3833C14.0147 17.5437 14.146 17.743 14.2254 17.9646L14.3903 18.4251C14.5569 18.8904 14.376 19.409 13.956 19.6696L13.5466 19.9236ZM16.6394 15.8569L16.5958 15.8965C16.2665 16.1958 16.2164 16.6954 16.4795 17.0542C16.6165 17.241 16.6733 17.4747 16.6373 17.7035L16.5397 18.3245C16.5296 18.389 16.5361 18.4551 16.5585 18.5164C16.6326 18.7184 16.8582 18.8202 17.0587 18.7421L17.5965 18.5326C17.7796 18.4612 17.9361 18.3348 18.0444 18.1707L18.3296 17.7387C18.3669 17.6821 18.409 17.6289 18.4555 17.5796L18.8389 17.1729C19.1339 16.8601 19.0793 16.3576 18.7241 16.1154L18.5441 16.0063C18.3271 15.8748 18.0903 15.779 17.8428 15.7228L17.5396 15.6539C17.2247 15.5585 16.8829 15.6356 16.6394 15.8569Z" fill="#FCFCFC"/>
<path fill-rule="evenodd" clip-rule="evenodd" d="M16.1126 9.54993L16.9135 9.60537C19.2816 9.76928 21.2635 11.327 22.0481 13.4621L22.2768 14.0843L21.6324 14.2402C21.4112 14.2938 21.181 14.3042 20.9547 14.2702L20.2852 14.1697C20.1109 14.1435 19.9333 14.1478 19.7604 14.1823L19.6446 13.6029C19.8845 13.5549 20.131 13.549 20.373 13.5853L21.0424 13.6858C21.1931 13.7085 21.3462 13.7015 21.4935 13.6659C21.423 13.4742 21.3418 13.2876 21.2506 13.107C20.537 11.6932 19.2108 10.6414 17.6209 10.3003C17.5783 10.2912 17.5355 10.2826 17.4926 10.2745C17.4486 10.2662 17.4044 10.2584 17.36 10.2512C17.2479 10.2329 17.1346 10.2182 17.0202 10.2071C16.9712 10.2024 16.9221 10.1983 16.8727 10.1949L16.8833 10.2396C16.9104 10.3537 16.9668 10.4588 17.0469 10.5444L17.1205 10.6229C17.1765 10.6827 17.2157 10.7539 17.2368 10.8299C17.2641 10.928 17.2611 11.034 17.225 11.1333L17.2068 11.1833C17.1228 11.4139 17.2417 11.669 17.4724 11.7529C17.6645 11.8228 17.7841 12.0148 17.7622 12.2181L17.725 12.5638C17.6974 12.8209 17.7831 13.0774 17.9599 13.2661L18.0473 13.3595L17.616 13.7634L17.5286 13.67C17.2342 13.3557 17.0914 12.9287 17.1375 12.5006L17.1632 12.2623C16.6983 12.0317 16.4706 11.4844 16.6501 10.9851L16.6157 10.9483C16.4651 10.7875 16.3591 10.5902 16.3083 10.3759L16.1126 9.54993ZM18.0473 13.3595C18.3234 13.6542 18.7321 13.7853 19.1281 13.7061L19.6446 13.6029L19.7604 14.1823L19.2439 14.2856C18.6475 14.4048 18.0318 14.2073 17.616 13.7634L18.0473 13.3595ZM13.5346 20.6266L13.2181 20.4148C11.6352 19.3559 10.5909 17.5501 10.5909 15.5002C10.5909 13.2858 11.8092 11.3568 13.6093 10.3454L13.8864 10.1897L14.1691 10.3351C14.3304 10.4181 14.4824 10.524 14.6203 10.6523C14.7821 10.8029 14.918 10.979 15.0225 11.1737L15.1786 11.4642L15.4263 11.8101C15.6943 12.1842 15.8384 12.6327 15.8384 13.0929V13.223C15.8384 13.2542 15.8437 13.2853 15.8543 13.3147C16.0854 13.96 15.8345 14.679 15.2521 15.0404L15.0798 15.1473C15.051 15.1651 15.024 15.1858 14.9992 15.2089L14.1961 15.9564C14.0204 16.1199 13.9495 16.3671 14.0118 16.5989C14.0433 16.7163 14.1072 16.8225 14.1961 16.9053L14.2451 16.9508C14.4865 17.1755 14.6706 17.4549 14.7818 17.7654L14.9467 18.2259C15.2073 18.9535 14.9243 19.7643 14.2676 20.1717L13.5346 20.6266ZM14.6761 11.7774L14.502 11.4533C14.4281 11.3157 14.3321 11.1913 14.2177 11.0849C14.1199 10.9938 14.0124 10.919 13.8988 10.8605C12.2773 11.7716 11.1819 13.508 11.1819 15.5002C11.1819 17.3446 12.1208 18.9697 13.5467 19.9237L13.9561 19.6696C14.3761 19.409 14.557 18.8905 14.3904 18.4251L14.2255 17.9646C14.1461 17.743 14.0148 17.5437 13.8425 17.3834L13.7936 17.3378C13.6235 17.1795 13.5014 16.9766 13.4411 16.7522C13.3221 16.3091 13.4577 15.8364 13.7936 15.5238L14.5966 14.7763C14.6495 14.7271 14.7069 14.6832 14.7683 14.6452L14.9405 14.5383C15.2862 14.3238 15.4352 13.897 15.298 13.5139C15.2645 13.4206 15.2474 13.3221 15.2474 13.223V13.0929C15.2474 12.7562 15.142 12.4279 14.9459 12.1542L14.6761 11.7774ZM19.044 15.6183L19.057 15.6272C19.7125 16.0741 19.8132 17.0011 19.269 17.5784L18.8855 17.9851L18.4556 17.5797L18.839 17.173C19.134 16.8601 19.0794 16.3577 18.7242 16.1154L18.5442 16.0063C18.3271 15.8748 18.0904 15.7791 17.8429 15.7229L17.5396 15.6539C17.2248 15.5585 16.8829 15.6356 16.6395 15.8569L16.5959 15.8966C16.2666 16.1959 16.2164 16.6955 16.4796 17.0543C16.6165 17.2411 16.6733 17.4747 16.6374 17.7035L16.5398 18.3245L15.9561 18.2328L16.0536 17.6118C16.0652 17.5385 16.047 17.4636 16.0031 17.4037C15.5611 16.8011 15.6454 15.962 16.1984 15.4593L16.242 15.4197C16.6335 15.0638 17.1809 14.9364 17.6885 15.0818L17.9739 15.1466C18.2832 15.2169 18.5792 15.3366 18.8504 15.501L19.044 15.6183ZM17.0588 18.7421L17.5966 18.5326C17.7797 18.4612 17.9362 18.3348 18.0445 18.1708L18.3296 17.7387C18.367 17.6822 18.4091 17.629 18.4556 17.5797L18.8855 17.9851C18.8624 18.0096 18.8414 18.0361 18.8228 18.0642L18.5377 18.4963C18.362 18.7624 18.1082 18.9674 17.8111 19.0832L17.2733 19.2927L17.0588 18.7421ZM17.0588 18.7421C16.8583 18.8202 16.6327 18.7184 16.5586 18.5164C16.5361 18.4551 16.5297 18.3891 16.5398 18.3245L15.9561 18.2328C15.9303 18.3966 15.9468 18.5642 16.0038 18.7198C16.1919 19.2326 16.7644 19.491 17.2733 19.2927L17.0588 18.7421Z" fill="url(#paint2_linear)"/>
<defs>
<linearGradient id="paint0_linear" x1="17.2597" y1="8.73135" x2="21.0087" y2="20.4671" gradientUnits="userSpaceOnUse">
<stop stop-color="#C5FFAA"/>
<stop offset="1" stop-color="#00BAC6"/>
</linearGradient>
<linearGradient id="paint1_linear" x1="17.3442" y1="7.97937" x2="21.5097" y2="21.0191" gradientUnits="userSpaceOnUse">
<stop stop-color="#C5FFAA"/>
<stop offset="1" stop-color="#00BAC6"/>
</linearGradient>
<linearGradient id="paint2_linear" x1="17.2685" y1="8.03948" x2="21.0043" y2="20.377" gradientUnits="userSpaceOnUse">
<stop stop-color="#C5FFAA"/>
<stop offset="1" stop-color="#00BAC6"/>
</linearGradient>
</defs>
</svg>
