<svg width="24" height="24" viewBox="0 0 24 24" fill="none" xmlns="http://www.w3.org/2000/svg">
<path d="M5.94226 6C5.94226 4.34315 7.28541 3 8.94226 3H11.4316C15.3928 3 18.8883 5.58997 20.0417 9.37958L20.1332 9.68034C20.3917 10.5298 20.5231 11.4128 20.5231 12.3008V16.6154C20.5231 18.2722 19.18 19.6154 17.5231 19.6154H8.94226C7.28541 19.6154 5.94226 18.2722 5.94226 16.6154V6Z" fill="#9BB2FD"/>
<path d="M2.52307 6C2.52307 4.34315 3.86622 3 5.52307 3H12.7931C15.0022 3 16.7931 4.79086 16.7931 7V8.02469C16.7931 8.58651 17.2486 9.04196 17.8104 9.04196C19.3086 9.04196 20.5231 10.2565 20.5231 11.7547V16.6154C20.5231 18.2722 19.1799 19.6154 17.5231 19.6154H4.78882C3.53749 19.6154 2.52308 18.601 2.52307 17.3497V6Z" fill="#E5EBFE"/>
<path d="M13.7379 10.4542H11.4914C11.228 10.4542 11.0145 10.2164 11.0145 9.92313C11.0145 9.62986 11.228 9.3921 11.4914 9.3921H13.7379C14.0012 9.3921 14.2147 9.62986 14.2147 9.92313C14.2147 10.2164 14.0012 10.4542 13.7379 10.4542Z" fill="#FCFCFC"/>
<path d="M14.2147 13.1094L5.07694 13.1093C4.8136 13.1093 4.6001 12.8716 4.6001 12.5783C4.6001 12.285 4.8136 12.0473 5.07694 12.0473L14.2147 12.0473C14.478 12.0473 14.6915 12.2851 14.6915 12.5783C14.6915 12.8716 14.478 13.1094 14.2147 13.1094Z" fill="#FCFCFC"/>
<path d="M14.2147 15.9258L5.07694 15.9258C4.8136 15.9258 4.6001 15.688 4.6001 15.3947C4.6001 15.1015 4.8136 14.8637 5.07694 14.8637L14.2147 14.8637C14.478 14.8637 14.6915 15.1015 14.6915 15.3948C14.6915 15.688 14.478 15.9258 14.2147 15.9258Z" fill="#FCFCFC"/>
<path d="M13.7379 8.53849H11.4914C11.228 8.53849 11.0145 8.30073 11.0145 8.00746C11.0145 7.71419 11.228 7.47643 11.4914 7.47643H13.7379C14.0012 7.47643 14.2147 7.71419 14.2147 8.00746C14.2147 8.30073 14.0012 8.53849 13.7379 8.53849Z" fill="#FCFCFC"/>
<path d="M13.7379 6.83135H11.4914C11.228 6.83135 11.0145 6.59359 11.0145 6.30032C11.0145 6.00705 11.228 5.76929 11.4914 5.76929L13.7379 5.76929C14.0012 5.76929 14.2147 6.00705 14.2147 6.30032C14.2147 6.59359 14.0012 6.83135 13.7379 6.83135Z" fill="#FCFCFC"/>
<rect x="4.59998" y="5.40002" width="6" height="5" rx="2" fill="#FCFCFC"/>
<path d="M15.6826 8.15349C15.7582 8.06057 15.8671 8.00502 15.9834 8.00032C16.0996 7.99563 16.2124 8.04209 16.2945 8.1285C17.4076 9.32956 17.6047 11.1696 16.7737 12.6003C16.5836 12.9003 16.5663 13.2859 16.7287 13.6032C16.9278 13.9433 17.2869 14.143 17.6667 14.1252C18.2495 14.1267 18.7901 13.8063 19.0899 13.2815C19.1685 13.1513 19.3049 13.0722 19.4516 13.0713C19.599 13.0733 19.7344 13.1572 19.8077 13.2915C20.61 14.765 21 15.897 21 16.7501C21 19.6496 18.7613 22 16 22C13.2386 22 11 19.6496 11 16.7501C11 13.9633 15.4914 8.39018 15.6826 8.15349Z" fill="url(#paint0_linear)"/>
<path d="M15.671 15.185C15.7842 15.0094 16.0008 14.9499 16.1789 15.0453C16.2525 15.0847 16.9037 15.4524 17.0478 16.1539C17.1263 16.6062 17.002 17.0715 16.7121 17.4108C16.656 17.5186 16.6576 17.6504 16.7163 17.7566C16.7634 17.8863 16.8716 17.9791 17 18C17.1019 17.9987 17.2018 17.9692 17.2899 17.9143C17.3931 17.8524 17.5166 17.8425 17.6271 17.8874C17.7378 17.9322 17.8241 18.0272 17.8632 18.1468C17.945 18.3739 17.9912 18.6139 18 18.8572C18 20.0406 17.1045 21 16 21C14.8954 21 14 20.0406 14 18.8572C14 17.8287 15.3918 15.6178 15.671 15.185Z" fill="url(#paint1_linear)"/>
<defs>
<linearGradient id="paint0_linear" x1="16.0001" y1="22" x2="21.3808" y2="8.79204" gradientUnits="userSpaceOnUse">
<stop stop-color="#FFD52A"/>
<stop offset="1" stop-color="#FFFC49"/>
</linearGradient>
<linearGradient id="paint1_linear" x1="16.0001" y1="14.3142" x2="12.058" y2="18.3342" gradientUnits="userSpaceOnUse">
<stop stop-color="#FFAC66"/>
<stop offset="0.39658" stop-color="#FF7500"/>
<stop offset="0.9375" stop-color="#E56900"/>
</linearGradient>
</defs>
</svg>
